# xmcd
#
# Track frame offsets: 
#        150
#        14179
#        24142
#        34546
#        45332
#        54535
#        64158
#        77268
#        87910
#        98754
#        109268
#        119607
#        130245
#        141068
#        152939
#        167971
#        180687
#        190898
#        200941
#        211879
#
# Disc length: 2980 seconds
#
# Revision: 0
# Processed by: cddbd v1.5.2PL0 Copyright (c) Steve Scherf et al.
# Submitted via: ExactAudioCopy v0.99pb5
#
DISCID=160ba214
DTITLE=Various Artist - Lemon Popsicles And Strawberry Milkshakes CD2
DYEAR=1900
DGENRE=Rock and Roll
TTITLE0=Bobby Darin - Mack The Knife - What Women Want - 1959 Original
TTITLE0=Kurt Gerron - Die Moritat von Mackie Messer 1928
TTITLE1=Connie Francis - Stupid Cupid - The Princess Diaries - 1958
TTITLE2=Bill Haley and His Comets - Don't Knock The Rock - Don't Knock T
TTITLE2=he Rock 1957
TTITLE3=Little Richard And His Comets - Tutti-Frutti - Cocktail - 1955
TTITLE4=Elvis Presley - Wooden Heart - G.I. Blues 1960 Original Volksl
TTITLE4=ied - Muss I Denn Zum Städtele Hinaus
TTITLE5=Elvis Presley - King Creole  - King Creole  - 1958
TTITLE6=Mickey and Sylvia - Love Is Strange - Dirty Dancing - 1956
TTITLE7=Frankie Avalon - Venus - Born On The Fourth Of July - 1959
TTITLE8=Duane Eddy - Peter Gunn - The Blues Brothers - 1959 Original H
TTITLE8=enry Mancini 1959
TTITLE9=Monotones, The - Book Of Love - American Grafitti - 1957
TTITLE10=Fats Domino - Blue Monday - Road House - 1955 Original Smiley
TTITLE10=Lewis 1953
TTITLE11=Phil Phillips With The Twilights - Sea Of Love - Sea Of Love 
TTITLE11=1959
TTITLE12=Big Bopper, The - Chantilly Lace - American Grafitti - 1958
TTITLE13=Chuck Berry - Bye Bye Johnny - Back To The Future - 1960
TTITLE14=Flamingos The - Only Have Eyes For You - My Girl - 1959
TTITLE15=Willie Mae ''Big Mama'' Thornton - Hound Dog - A Few Good Men
TTITLE15=1953
TTITLE16=Isley Brothers, The - Shout - Animal House - 1959
TTITLE17=Ricky Nelson - Lonesome Town - Pulp Fiction - 1958
TTITLE18=Little Richard - The Girl Can't Help It - The Girl Can't Help
TTITLE18=It - 1956
TTITLE19=Dion and The Belmonts - A Teenager In Love - Diner - 1959
EXTD=
EXTT0=
EXTT1=
EXTT2=
EXTT3=
EXTT4=
EXTT5=
EXTT6=
EXTT7=
EXTT8=
EXTT9=
EXTT10=
EXTT11=
EXTT12=
EXTT13=
EXTT14=
EXTT15=
EXTT16=
EXTT17=
EXTT18=
EXTT19=
PLAYORDER=
